<?xml version="1.0" encoding="UTF-8" standalone="no"?>
<!DOCTYPE svg PUBLIC "-//W3C//DTD SVG 1.1//EN"
 "http://www.w3.org/Graphics/SVG/1.1/DTD/svg11.dtd">
<!-- Generated by graphviz version 2.43.0 (0)
 -->
<!-- Title: project Pages: 1 -->
<svg width="540pt" height="692pt"
 viewBox="0.00 0.00 540.05 692.00" xmlns="http://www.w3.org/2000/svg" xmlns:xlink="http://www.w3.org/1999/xlink">
<g id="graph0" class="graph" transform="scale(1 1) rotate(0) translate(4 688)">
<title>project</title>
<polygon fill="white" stroke="transparent" points="-4,4 -4,-688 536.05,-688 536.05,4 -4,4"/>
<!-- external&#45;stripe&#45;http&#45;lib5 -->
<g id="node1" class="node">
<title>external&#45;stripe&#45;http&#45;lib5</title>
<ellipse fill="none" stroke="black" cx="228.98" cy="-666" rx="122.38" ry="18"/>
<text text-anchor="middle" x="228.98" y="-662.3" font-family="Times,serif" font-size="14.00">external&#45;stripe&#45;http&#45;lib5</text>
</g>
<!-- core&#45;headers -->
<g id="node7" class="node">
<title>core&#45;headers</title>
<ellipse fill="none" stroke="black" cx="461.21" cy="-342" rx="70.69" ry="18"/>
<text text-anchor="middle" x="461.21" y="-338.3" font-family="Times,serif" font-size="14.00">core&#45;headers</text>
</g>
<!-- external&#45;stripe&#45;http&#45;lib5&#45;&gt;core&#45;headers -->
<g id="edge2" class="edge">
<title>external&#45;stripe&#45;http&#45;lib5&#45;&gt;core&#45;headers</title>
<path fill="none" stroke="black" d="M345.35,-660.34C358.99,-655.6 371.8,-648.74 382.37,-639 422.09,-602.37 447.71,-437.52 456.66,-370.49"/>
<polygon fill="black" stroke="black" points="460.17,-370.61 458,-360.24 453.23,-369.7 460.17,-370.61"/>
</g>
<!-- kafka&#45;consumer&#45;lib7 -->
<g id="node2" class="node">
<title>kafka&#45;consumer&#45;lib7</title>
<ellipse fill="none" stroke="black" cx="228.98" cy="-612" rx="104.78" ry="18"/>
<text text-anchor="middle" x="228.98" y="-608.3" font-family="Times,serif" font-size="14.00">kafka&#45;consumer&#45;lib7</text>
</g>
<!-- kafka&#45;consumer&#45;lib7&#45;&gt;core&#45;headers -->
<g id="edge13" class="edge">
<title>kafka&#45;consumer&#45;lib7&#45;&gt;core&#45;headers</title>
<path fill="none" stroke="black" d="M332.77,-609.35C350.9,-604.78 368.41,-597.2 382.37,-585 446.06,-529.35 458.05,-421.55 460.02,-370.34"/>
<polygon fill="black" stroke="black" points="463.52,-370.4 460.31,-360.31 456.53,-370.21 463.52,-370.4"/>
</g>
<!-- internal&#45;accounting&#45;grpc&#45;lib6 -->
<g id="node3" class="node">
<title>internal&#45;accounting&#45;grpc&#45;lib6</title>
<ellipse fill="none" stroke="black" cx="228.98" cy="-558" rx="145.67" ry="18"/>
<text text-anchor="middle" x="228.98" y="-554.3" font-family="Times,serif" font-size="14.00">internal&#45;accounting&#45;grpc&#45;lib6</text>
</g>
<!-- internal&#45;accounting&#45;grpc&#45;lib6&#45;&gt;core&#45;headers -->
<g id="edge23" class="edge">
<title>internal&#45;accounting&#45;grpc&#45;lib6&#45;&gt;core&#45;headers</title>
<path fill="none" stroke="black" d="M351.84,-548.22C362.85,-543.95 373.26,-538.33 382.37,-531 432.59,-490.57 450.74,-412.33 457.04,-370.31"/>
<polygon fill="black" stroke="black" points="460.53,-370.6 458.43,-360.21 453.6,-369.64 460.53,-370.6"/>
</g>
<!-- external&#45;google&#45;maps&#45;http&#45;lib5 -->
<g id="node4" class="node">
<title>external&#45;google&#45;maps&#45;http&#45;lib5</title>
<ellipse fill="none" stroke="black" cx="228.98" cy="-504" rx="153.27" ry="18"/>
<text text-anchor="middle" x="228.98" y="-500.3" font-family="Times,serif" font-size="14.00">external&#45;google&#45;maps&#45;http&#45;lib5</text>
</g>
<!-- external&#45;google&#45;maps&#45;http&#45;lib5&#45;&gt;core&#45;headers -->
<g id="edge8" class="edge">
<title>external&#45;google&#45;maps&#45;http&#45;lib5&#45;&gt;core&#45;headers</title>
<path fill="none" stroke="black" d="M350.88,-492.94C362.08,-488.92 372.8,-483.71 382.37,-477 419.38,-451.04 441.24,-401.45 451.96,-370.14"/>
<polygon fill="black" stroke="black" points="455.4,-370.87 455.17,-360.28 448.75,-368.7 455.4,-370.87"/>
</g>
<!-- persistence&#45;db&#45;postgres&#45;lib1 -->
<g id="node5" class="node">
<title>persistence&#45;db&#45;postgres&#45;lib1</title>
<ellipse fill="none" stroke="black" cx="228.98" cy="-450" rx="142.97" ry="18"/>
<text text-anchor="middle" x="228.98" y="-446.3" font-family="Times,serif" font-size="14.00">persistence&#45;db&#45;postgres&#45;lib1</text>
</g>
<!-- persistence&#45;db&#45;postgres&#45;lib1&#45;&gt;core&#45;headers -->
<g id="edge12" class="edge">
<title>persistence&#45;db&#45;postgres&#45;lib1&#45;&gt;core&#45;headers</title>
<path fill="none" stroke="black" d="M341.38,-438.75C355.65,-434.89 369.69,-429.77 382.37,-423 406.62,-410.06 427.76,-386.81 441.87,-368.54"/>
<polygon fill="black" stroke="black" points="445.04,-370.14 448.21,-360.03 439.43,-365.95 445.04,-370.14"/>
</g>
<!-- core -->
<g id="node6" class="node">
<title>core</title>
<ellipse fill="none" stroke="black" cx="228.98" cy="-396" rx="30.59" ry="18"/>
<text text-anchor="middle" x="228.98" y="-392.3" font-family="Times,serif" font-size="14.00">core</text>
</g>
<!-- core&#45;&gt;core&#45;headers -->
<g id="edge5" class="edge">
<title>core&#45;&gt;core&#45;headers</title>
<path fill="none" stroke="black" d="M258.92,-392.27C289.79,-387.96 339.98,-380.03 382.37,-369 391.82,-366.54 401.77,-363.47 411.27,-360.29"/>
<polygon fill="black" stroke="black" points="412.66,-363.52 420.98,-356.96 410.39,-356.9 412.66,-363.52"/>
</g>
<!-- persistence&#45;db&#45;postgres&#45;lib2 -->
<g id="node8" class="node">
<title>persistence&#45;db&#45;postgres&#45;lib2</title>
<ellipse fill="none" stroke="black" cx="228.98" cy="-342" rx="142.97" ry="18"/>
<text text-anchor="middle" x="228.98" y="-338.3" font-family="Times,serif" font-size="14.00">persistence&#45;db&#45;postgres&#45;lib2</text>
</g>
<!-- persistence&#45;db&#45;postgres&#45;lib2&#45;&gt;core&#45;headers -->
<g id="edge14" class="edge">
<title>persistence&#45;db&#45;postgres&#45;lib2&#45;&gt;core&#45;headers</title>
<path fill="none" stroke="black" d="M372.18,-342C374.89,-342 377.57,-342 380.23,-342"/>
<polygon fill="black" stroke="black" points="380.32,-345.5 390.32,-342 380.32,-338.5 380.32,-345.5"/>
</g>
<!-- internal&#45;kafka&#45;producer&#45;lib7 -->
<g id="node9" class="node">
<title>internal&#45;kafka&#45;producer&#45;lib7</title>
<ellipse fill="none" stroke="black" cx="228.98" cy="-288" rx="140.28" ry="18"/>
<text text-anchor="middle" x="228.98" y="-284.3" font-family="Times,serif" font-size="14.00">internal&#45;kafka&#45;producer&#45;lib7</text>
</g>
<!-- internal&#45;kafka&#45;producer&#45;lib7&#45;&gt;core&#45;headers -->
<g id="edge15" class="edge">
<title>internal&#45;kafka&#45;producer&#45;lib7&#45;&gt;core&#45;headers</title>
<path fill="none" stroke="black" d="M320.74,-301.65C341.15,-305.39 362.61,-309.86 382.37,-315 391.82,-317.46 401.77,-320.53 411.27,-323.71"/>
<polygon fill="black" stroke="black" points="410.39,-327.1 420.98,-327.04 412.66,-320.48 410.39,-327.1"/>
</g>
<!-- config&#45;file&#45;lib3 -->
<g id="node10" class="node">
<title>config&#45;file&#45;lib3</title>
<ellipse fill="none" stroke="black" cx="228.98" cy="-234" rx="76.09" ry="18"/>
<text text-anchor="middle" x="228.98" y="-230.3" font-family="Times,serif" font-size="14.00">config&#45;file&#45;lib3</text>
</g>
<!-- config&#45;file&#45;lib3&#45;&gt;core&#45;headers -->
<g id="edge9" class="edge">
<title>config&#45;file&#45;lib3&#45;&gt;core&#45;headers</title>
<path fill="none" stroke="black" d="M303.6,-237.65C329.66,-241.32 358.43,-248.22 382.37,-261 406.62,-273.94 427.76,-297.19 441.87,-315.46"/>
<polygon fill="black" stroke="black" points="439.43,-318.05 448.21,-323.97 445.04,-313.86 439.43,-318.05"/>
</g>
<!-- main -->
<g id="node11" class="node">
<title>main</title>
<ellipse fill="none" stroke="black" cx="33.8" cy="-342" rx="33.6" ry="18"/>
<text text-anchor="middle" x="33.8" y="-338.3" font-family="Times,serif" font-size="14.00">main</text>
</g>
<!-- main&#45;&gt;external&#45;stripe&#45;http&#45;lib5 -->
<g id="edge19" class="edge">
<title>main&#45;&gt;external&#45;stripe&#45;http&#45;lib5</title>
<path fill="none" stroke="black" d="M34.61,-360.12C34.42,-418.29 36.99,-598.86 75.59,-639 83,-646.7 91.79,-652.67 101.35,-657.24"/>
<polygon fill="black" stroke="black" points="100.16,-660.54 110.73,-661.21 102.89,-654.09 100.16,-660.54"/>
</g>
<!-- main&#45;&gt;kafka&#45;consumer&#45;lib7 -->
<g id="edge4" class="edge">
<title>main&#45;&gt;kafka&#45;consumer&#45;lib7</title>
<path fill="none" stroke="black" d="M35.22,-359.99C36.81,-410.7 44.05,-553.17 75.59,-585 86.38,-595.88 99.91,-603.25 114.45,-608.14"/>
<polygon fill="black" stroke="black" points="113.54,-611.52 124.12,-611.01 115.52,-604.81 113.54,-611.52"/>
</g>
<!-- main&#45;&gt;internal&#45;accounting&#45;grpc&#45;lib6 -->
<g id="edge3" class="edge">
<title>main&#45;&gt;internal&#45;accounting&#45;grpc&#45;lib6</title>
<path fill="none" stroke="black" d="M36.19,-360.22C39.84,-402.89 51.12,-507.42 75.59,-531 80.98,-536.19 87,-540.57 93.45,-544.26"/>
<polygon fill="black" stroke="black" points="91.99,-547.44 102.49,-548.86 95.17,-541.2 91.99,-547.44"/>
</g>
<!-- main&#45;&gt;external&#45;google&#45;maps&#45;http&#45;lib5 -->
<g id="edge7" class="edge">
<title>main&#45;&gt;external&#45;google&#45;maps&#45;http&#45;lib5</title>
<path fill="none" stroke="black" d="M34.66,-360.45C35.5,-389.81 41.73,-446.92 75.59,-477 80.86,-481.68 86.64,-485.68 92.78,-489.09"/>
<polygon fill="black" stroke="black" points="91.5,-492.37 102.01,-493.69 94.62,-486.1 91.5,-492.37"/>
</g>
<!-- main&#45;&gt;persistence&#45;db&#45;postgres&#45;lib1 -->
<g id="edge11" class="edge">
<title>main&#45;&gt;persistence&#45;db&#45;postgres&#45;lib1</title>
<path fill="none" stroke="black" d="M38.79,-359.89C43.96,-378.68 54.88,-407.58 75.59,-423 82.8,-428.36 90.72,-432.78 99.04,-436.42"/>
<polygon fill="black" stroke="black" points="98.02,-439.78 108.6,-440.2 100.59,-433.27 98.02,-439.78"/>
</g>
<!-- main&#45;&gt;core -->
<g id="edge16" class="edge">
<title>main&#45;&gt;core</title>
<path fill="none" stroke="black" d="M53.81,-356.91C60.39,-361.42 68.02,-365.98 75.59,-369 112.13,-383.59 156.74,-390.33 188.22,-393.42"/>
<polygon fill="black" stroke="black" points="188.09,-396.92 198.36,-394.33 188.72,-389.95 188.09,-396.92"/>
</g>
<!-- main&#45;&gt;persistence&#45;db&#45;postgres&#45;lib2 -->
<g id="edge20" class="edge">
<title>main&#45;&gt;persistence&#45;db&#45;postgres&#45;lib2</title>
<path fill="none" stroke="black" d="M68.01,-342C70.5,-342 73.09,-342 75.77,-342"/>
<polygon fill="black" stroke="black" points="75.83,-345.5 85.83,-342 75.83,-338.5 75.83,-345.5"/>
</g>
<!-- main&#45;&gt;internal&#45;kafka&#45;producer&#45;lib7 -->
<g id="edge17" class="edge">
<title>main&#45;&gt;internal&#45;kafka&#45;producer&#45;lib7</title>
<path fill="none" stroke="black" d="M53.81,-327.09C60.39,-322.58 68.02,-318.02 75.59,-315 88.24,-309.95 101.86,-305.84 115.56,-302.49"/>
<polygon fill="black" stroke="black" points="116.58,-305.85 125.54,-300.19 115.01,-299.03 116.58,-305.85"/>
</g>
<!-- main&#45;&gt;config&#45;file&#45;lib3 -->
<g id="edge18" class="edge">
<title>main&#45;&gt;config&#45;file&#45;lib3</title>
<path fill="none" stroke="black" d="M38.79,-324.11C43.96,-305.32 54.88,-276.42 75.59,-261 94.83,-246.68 119.18,-239.07 142.73,-235.22"/>
<polygon fill="black" stroke="black" points="143.35,-238.67 152.76,-233.79 142.37,-231.74 143.35,-238.67"/>
</g>
<!-- config&#45;db&#45;mongo&#45;lib4 -->
<g id="node12" class="node">
<title>config&#45;db&#45;mongo&#45;lib4</title>
<ellipse fill="none" stroke="black" cx="228.98" cy="-180" rx="107.78" ry="18"/>
<text text-anchor="middle" x="228.98" y="-176.3" font-family="Times,serif" font-size="14.00">config&#45;db&#45;mongo&#45;lib4</text>
</g>
<!-- main&#45;&gt;config&#45;db&#45;mongo&#45;lib4 -->
<g id="edge26" class="edge">
<title>main&#45;&gt;config&#45;db&#45;mongo&#45;lib4</title>
<path fill="none" stroke="black" d="M34.66,-323.55C35.5,-294.19 41.73,-237.08 75.59,-207 86.37,-197.43 99.31,-190.69 113.05,-186"/>
<polygon fill="black" stroke="black" points="114.12,-189.34 122.67,-183.08 112.08,-182.64 114.12,-189.34"/>
</g>
<!-- delivery&#45;http&#45;lib5 -->
<g id="node13" class="node">
<title>delivery&#45;http&#45;lib5</title>
<ellipse fill="none" stroke="black" cx="228.98" cy="-126" rx="90.98" ry="18"/>
<text text-anchor="middle" x="228.98" y="-122.3" font-family="Times,serif" font-size="14.00">delivery&#45;http&#45;lib5</text>
</g>
<!-- main&#45;&gt;delivery&#45;http&#45;lib5 -->
<g id="edge1" class="edge">
<title>main&#45;&gt;delivery&#45;http&#45;lib5</title>
<path fill="none" stroke="black" d="M36.19,-323.78C39.84,-281.11 51.12,-176.58 75.59,-153 89.91,-139.21 108.68,-131.13 128.14,-126.62"/>
<polygon fill="black" stroke="black" points="128.93,-130.03 138.04,-124.63 127.55,-123.17 128.93,-130.03"/>
</g>
<!-- job&#45;processor&#45;lib9 -->
<g id="node14" class="node">
<title>job&#45;processor&#45;lib9</title>
<ellipse fill="none" stroke="black" cx="228.98" cy="-72" rx="93.68" ry="18"/>
<text text-anchor="middle" x="228.98" y="-68.3" font-family="Times,serif" font-size="14.00">job&#45;processor&#45;lib9</text>
</g>
<!-- main&#45;&gt;job&#45;processor&#45;lib9 -->
<g id="edge10" class="edge">
<title>main&#45;&gt;job&#45;processor&#45;lib9</title>
<path fill="none" stroke="black" d="M35.22,-324.01C36.81,-273.3 44.05,-130.83 75.59,-99 89.12,-85.35 106.99,-77.22 125.71,-72.59"/>
<polygon fill="black" stroke="black" points="126.52,-76 135.56,-70.48 125.05,-69.15 126.52,-76"/>
</g>
<!-- scheduler&#45;lib8 -->
<g id="node15" class="node">
<title>scheduler&#45;lib8</title>
<ellipse fill="none" stroke="black" cx="228.98" cy="-18" rx="76.89" ry="18"/>
<text text-anchor="middle" x="228.98" y="-14.3" font-family="Times,serif" font-size="14.00">scheduler&#45;lib8</text>
</g>
<!-- main&#45;&gt;scheduler&#45;lib8 -->
<g id="edge22" class="edge">
<title>main&#45;&gt;scheduler&#45;lib8</title>
<path fill="none" stroke="black" d="M34.61,-323.88C34.42,-265.71 36.99,-85.14 75.59,-45 93.35,-26.54 119.02,-18.08 144.24,-14.74"/>
<polygon fill="black" stroke="black" points="144.67,-18.21 154.24,-13.67 143.93,-11.25 144.67,-18.21"/>
</g>
<!-- config&#45;db&#45;mongo&#45;lib4&#45;&gt;core&#45;headers -->
<g id="edge21" class="edge">
<title>config&#45;db&#45;mongo&#45;lib4&#45;&gt;core&#45;headers</title>
<path fill="none" stroke="black" d="M332.02,-185.42C349.91,-189.79 367.52,-196.59 382.37,-207 419.38,-232.96 441.24,-282.55 451.96,-313.86"/>
<polygon fill="black" stroke="black" points="448.75,-315.3 455.17,-323.72 455.4,-313.13 448.75,-315.3"/>
</g>
<!-- delivery&#45;http&#45;lib5&#45;&gt;core&#45;headers -->
<g id="edge25" class="edge">
<title>delivery&#45;http&#45;lib5&#45;&gt;core&#45;headers</title>
<path fill="none" stroke="black" d="M320.1,-127.02C342.34,-131.08 364.79,-138.85 382.37,-153 432.59,-193.43 450.74,-271.67 457.04,-313.69"/>
<polygon fill="black" stroke="black" points="453.6,-314.36 458.43,-323.79 460.53,-313.4 453.6,-314.36"/>
</g>
<!-- job&#45;processor&#45;lib9&#45;&gt;core&#45;headers -->
<g id="edge24" class="edge">
<title>job&#45;processor&#45;lib9&#45;&gt;core&#45;headers</title>
<path fill="none" stroke="black" d="M322.88,-72.45C344.44,-76.62 365.88,-84.59 382.37,-99 446.06,-154.65 458.05,-262.45 460.02,-313.66"/>
<polygon fill="black" stroke="black" points="456.53,-313.79 460.31,-323.69 463.52,-313.6 456.53,-313.79"/>
</g>
<!-- scheduler&#45;lib8&#45;&gt;core&#45;headers -->
<g id="edge6" class="edge">
<title>scheduler&#45;lib8&#45;&gt;core&#45;headers</title>
<path fill="none" stroke="black" d="M304.84,-15.14C332.26,-17.9 361.63,-25.88 382.37,-45 422.09,-81.63 447.71,-246.48 456.66,-313.51"/>
<polygon fill="black" stroke="black" points="453.23,-314.3 458,-323.76 460.17,-313.39 453.23,-314.3"/>
</g>
</g>
</svg>
