<?xml version="1.0" encoding="UTF-8" standalone="no"?>
<!DOCTYPE svg PUBLIC "-//W3C//DTD SVG 1.1//EN"
 "http://www.w3.org/Graphics/SVG/1.1/DTD/svg11.dtd">
<!-- Generated by graphviz version 2.43.0 (0)
 -->
<!-- Title: project Pages: 1 -->
<svg width="540pt" height="692pt"
 viewBox="0.00 0.00 540.05 692.00" xmlns="http://www.w3.org/2000/svg" xmlns:xlink="http://www.w3.org/1999/xlink">
<g id="graph0" class="graph" transform="scale(1 1) rotate(0) translate(4 688)">
<title>project</title>
<polygon fill="white" stroke="transparent" points="-4,4 -4,-688 536.05,-688 536.05,4 -4,4"/>
<!-- external&#45;stripe&#45;http&#45;lib5 -->
<g id="node1" class="node">
<title>external&#45;stripe&#45;http&#45;lib5</title>
<ellipse fill="none" stroke="black" cx="228.98" cy="-666" rx="122.38" ry="18"/>
<text text-anchor="middle" x="228.98" y="-662.3" font-family="Times,serif" font-size="14.00">external&#45;stripe&#45;http&#45;lib5</text>
</g>
<!-- lib5&#45;util -->
<g id="node4" class="node">
<title>lib5&#45;util</title>
<ellipse fill="none" stroke="black" cx="461.21" cy="-612" rx="46.59" ry="18"/>
<text text-anchor="middle" x="461.21" y="-608.3" font-family="Times,serif" font-size="14.00">lib5&#45;util</text>
</g>
<!-- external&#45;stripe&#45;http&#45;lib5&#45;&gt;lib5&#45;util -->
<g id="edge21" class="edge">
<title>external&#45;stripe&#45;http&#45;lib5&#45;&gt;lib5&#45;util</title>
<path fill="none" stroke="black" d="M315.93,-653.23C337.75,-649.31 361.05,-644.55 382.37,-639 394.04,-635.96 406.46,-632 417.88,-628.05"/>
<polygon fill="black" stroke="black" points="419.35,-631.24 427.61,-624.6 417.02,-624.64 419.35,-631.24"/>
</g>
<!-- core&#45;headers -->
<g id="node9" class="node">
<title>core&#45;headers</title>
<ellipse fill="none" stroke="black" cx="461.21" cy="-342" rx="70.69" ry="18"/>
<text text-anchor="middle" x="461.21" y="-338.3" font-family="Times,serif" font-size="14.00">core&#45;headers</text>
</g>
<!-- external&#45;stripe&#45;http&#45;lib5&#45;&gt;core&#45;headers -->
<g id="edge2" class="edge">
<title>external&#45;stripe&#45;http&#45;lib5&#45;&gt;core&#45;headers</title>
<path fill="none" stroke="black" d="M347.13,-661.11C360.33,-656.22 372.53,-649.11 382.37,-639 390.82,-630.3 387.8,-596.86 390.37,-585 407.54,-505.8 436.27,-414.45 450.95,-369.67"/>
<polygon fill="black" stroke="black" points="454.31,-370.67 454.12,-360.08 447.66,-368.48 454.31,-370.67"/>
</g>
<!-- kafka&#45;consumer&#45;lib7 -->
<g id="node2" class="node">
<title>kafka&#45;consumer&#45;lib7</title>
<ellipse fill="none" stroke="black" cx="228.98" cy="-18" rx="104.78" ry="18"/>
<text text-anchor="middle" x="228.98" y="-14.3" font-family="Times,serif" font-size="14.00">kafka&#45;consumer&#45;lib7</text>
</g>
<!-- lib7&#45;util -->
<g id="node8" class="node">
<title>lib7&#45;util</title>
<ellipse fill="none" stroke="black" cx="461.21" cy="-45" rx="46.59" ry="18"/>
<text text-anchor="middle" x="461.21" y="-41.3" font-family="Times,serif" font-size="14.00">lib7&#45;util</text>
</g>
<!-- kafka&#45;consumer&#45;lib7&#45;&gt;lib7&#45;util -->
<g id="edge18" class="edge">
<title>kafka&#45;consumer&#45;lib7&#45;&gt;lib7&#45;util</title>
<path fill="none" stroke="black" d="M316.04,-28.09C346.28,-31.64 379.38,-35.52 406.23,-38.67"/>
<polygon fill="black" stroke="black" points="405.85,-42.15 416.19,-39.84 406.67,-35.2 405.85,-42.15"/>
</g>
<!-- kafka&#45;consumer&#45;lib7&#45;&gt;core&#45;headers -->
<g id="edge16" class="edge">
<title>kafka&#45;consumer&#45;lib7&#45;&gt;core&#45;headers</title>
<path fill="none" stroke="black" d="M333.31,-20.06C351.39,-24.68 368.74,-32.43 382.37,-45 384.91,-47.34 434.38,-240.65 453.11,-314.1"/>
<polygon fill="black" stroke="black" points="449.78,-315.21 455.64,-324.04 456.56,-313.48 449.78,-315.21"/>
</g>
<!-- internal&#45;accounting&#45;grpc&#45;lib6 -->
<g id="node3" class="node">
<title>internal&#45;accounting&#45;grpc&#45;lib6</title>
<ellipse fill="none" stroke="black" cx="228.98" cy="-126" rx="145.67" ry="18"/>
<text text-anchor="middle" x="228.98" y="-122.3" font-family="Times,serif" font-size="14.00">internal&#45;accounting&#45;grpc&#45;lib6</text>
</g>
<!-- internal&#45;accounting&#45;grpc&#45;lib6&#45;&gt;core&#45;headers -->
<g id="edge28" class="edge">
<title>internal&#45;accounting&#45;grpc&#45;lib6&#45;&gt;core&#45;headers</title>
<path fill="none" stroke="black" d="M351.84,-135.78C362.85,-140.05 373.26,-145.67 382.37,-153 432.59,-193.43 450.74,-271.67 457.04,-313.69"/>
<polygon fill="black" stroke="black" points="453.6,-314.36 458.43,-323.79 460.53,-313.4 453.6,-314.36"/>
</g>
<!-- external&#45;google&#45;maps&#45;http&#45;lib5 -->
<g id="node5" class="node">
<title>external&#45;google&#45;maps&#45;http&#45;lib5</title>
<ellipse fill="none" stroke="black" cx="228.98" cy="-612" rx="153.27" ry="18"/>
<text text-anchor="middle" x="228.98" y="-608.3" font-family="Times,serif" font-size="14.00">external&#45;google&#45;maps&#45;http&#45;lib5</text>
</g>
<!-- external&#45;google&#45;maps&#45;http&#45;lib5&#45;&gt;lib5&#45;util -->
<g id="edge15" class="edge">
<title>external&#45;google&#45;maps&#45;http&#45;lib5&#45;&gt;lib5&#45;util</title>
<path fill="none" stroke="black" d="M382.59,-612C389.91,-612 397.02,-612 403.75,-612"/>
<polygon fill="black" stroke="black" points="404.01,-615.5 414.01,-612 404.01,-608.5 404.01,-615.5"/>
</g>
<!-- external&#45;google&#45;maps&#45;http&#45;lib5&#45;&gt;core&#45;headers -->
<g id="edge10" class="edge">
<title>external&#45;google&#45;maps&#45;http&#45;lib5&#45;&gt;core&#45;headers</title>
<path fill="none" stroke="black" d="M355.45,-601.71C365.22,-597.45 374.37,-591.98 382.37,-585 446.06,-529.35 458.05,-421.55 460.02,-370.34"/>
<polygon fill="black" stroke="black" points="463.52,-370.4 460.31,-360.31 456.53,-370.21 463.52,-370.4"/>
</g>
<!-- persistence&#45;db&#45;postgres&#45;lib1 -->
<g id="node6" class="node">
<title>persistence&#45;db&#45;postgres&#45;lib1</title>
<ellipse fill="none" stroke="black" cx="228.98" cy="-504" rx="142.97" ry="18"/>
<text text-anchor="middle" x="228.98" y="-500.3" font-family="Times,serif" font-size="14.00">persistence&#45;db&#45;postgres&#45;lib1</text>
</g>
<!-- persistence&#45;db&#45;postgres&#45;lib1&#45;&gt;core&#45;headers -->
<g id="edge14" class="edge">
<title>persistence&#45;db&#45;postgres&#45;lib1&#45;&gt;core&#45;headers</title>
<path fill="none" stroke="black" d="M348.17,-493.89C360.35,-489.75 372.03,-484.25 382.37,-477 419.38,-451.04 441.24,-401.45 451.96,-370.14"/>
<polygon fill="black" stroke="black" points="455.4,-370.87 455.17,-360.28 448.75,-368.7 455.4,-370.87"/>
</g>
<!-- core -->
<g id="node7" class="node">
<title>core</title>
<ellipse fill="none" stroke="black" cx="228.98" cy="-450" rx="30.59" ry="18"/>
<text text-anchor="middle" x="228.98" y="-446.3" font-family="Times,serif" font-size="14.00">core</text>
</g>
<!-- core&#45;&gt;core&#45;headers -->
<g id="edge5" class="edge">
<title>core&#45;&gt;core&#45;headers</title>
<path fill="none" stroke="black" d="M259.82,-450.08C291.89,-448.99 343.49,-443.75 382.37,-423 406.62,-410.06 427.76,-386.81 441.87,-368.54"/>
<polygon fill="black" stroke="black" points="445.04,-370.14 448.21,-360.03 439.43,-365.95 445.04,-370.14"/>
</g>
<!-- persistence&#45;db&#45;postgres&#45;lib2 -->
<g id="node10" class="node">
<title>persistence&#45;db&#45;postgres&#45;lib2</title>
<ellipse fill="none" stroke="black" cx="228.98" cy="-396" rx="142.97" ry="18"/>
<text text-anchor="middle" x="228.98" y="-392.3" font-family="Times,serif" font-size="14.00">persistence&#45;db&#45;postgres&#45;lib2</text>
</g>
<!-- persistence&#45;db&#45;postgres&#45;lib2&#45;&gt;core&#45;headers -->
<g id="edge17" class="edge">
<title>persistence&#45;db&#45;postgres&#45;lib2&#45;&gt;core&#45;headers</title>
<path fill="none" stroke="black" d="M321.55,-382.21C341.71,-378.49 362.87,-374.08 382.37,-369 391.82,-366.54 401.77,-363.47 411.27,-360.29"/>
<polygon fill="black" stroke="black" points="412.66,-363.52 420.98,-356.96 410.39,-356.9 412.66,-363.52"/>
</g>
<!-- internal&#45;kafka&#45;producer&#45;lib7 -->
<g id="node11" class="node">
<title>internal&#45;kafka&#45;producer&#45;lib7</title>
<ellipse fill="none" stroke="black" cx="228.98" cy="-72" rx="140.28" ry="18"/>
<text text-anchor="middle" x="228.98" y="-68.3" font-family="Times,serif" font-size="14.00">internal&#45;kafka&#45;producer&#45;lib7</text>
</g>
<!-- internal&#45;kafka&#45;producer&#45;lib7&#45;&gt;lib7&#45;util -->
<g id="edge7" class="edge">
<title>internal&#45;kafka&#45;producer&#45;lib7&#45;&gt;lib7&#45;util</title>
<path fill="none" stroke="black" d="M333.31,-59.88C358.49,-56.93 384.43,-53.89 406.24,-51.33"/>
<polygon fill="black" stroke="black" points="406.75,-54.79 416.28,-50.15 405.94,-47.84 406.75,-54.79"/>
</g>
<!-- internal&#45;kafka&#45;producer&#45;lib7&#45;&gt;core&#45;headers -->
<g id="edge19" class="edge">
<title>internal&#45;kafka&#45;producer&#45;lib7&#45;&gt;core&#45;headers</title>
<path fill="none" stroke="black" d="M352.09,-80.88C363.12,-85.32 373.46,-91.22 382.37,-99 446.06,-154.65 458.05,-262.45 460.02,-313.66"/>
<polygon fill="black" stroke="black" points="456.53,-313.79 460.31,-323.69 463.52,-313.6 456.53,-313.79"/>
</g>
<!-- config&#45;file&#45;lib3 -->
<g id="node12" class="node">
<title>config&#45;file&#45;lib3</title>
<ellipse fill="none" stroke="black" cx="228.98" cy="-342" rx="76.09" ry="18"/>
<text text-anchor="middle" x="228.98" y="-338.3" font-family="Times,serif" font-size="14.00">config&#45;file&#45;lib3</text>
</g>
<!-- config&#45;file&#45;lib3&#45;&gt;core&#45;headers -->
<g id="edge11" class="edge">
<title>config&#45;file&#45;lib3&#45;&gt;core&#45;headers</title>
<path fill="none" stroke="black" d="M305.05,-342C329.04,-342 355.69,-342 380.04,-342"/>
<polygon fill="black" stroke="black" points="380.32,-345.5 390.32,-342 380.32,-338.5 380.32,-345.5"/>
</g>
<!-- main -->
<g id="node13" class="node">
<title>main</title>
<ellipse fill="none" stroke="black" cx="33.8" cy="-342" rx="33.6" ry="18"/>
<text text-anchor="middle" x="33.8" y="-338.3" font-family="Times,serif" font-size="14.00">main</text>
</g>
<!-- main&#45;&gt;external&#45;stripe&#45;http&#45;lib5 -->
<g id="edge24" class="edge">
<title>main&#45;&gt;external&#45;stripe&#45;http&#45;lib5</title>
<path fill="none" stroke="black" d="M34.61,-360.12C34.42,-418.29 36.99,-598.86 75.59,-639 83,-646.7 91.79,-652.67 101.35,-657.24"/>
<polygon fill="black" stroke="black" points="100.16,-660.54 110.73,-661.21 102.89,-654.09 100.16,-660.54"/>
</g>
<!-- main&#45;&gt;kafka&#45;consumer&#45;lib7 -->
<g id="edge4" class="edge">
<title>main&#45;&gt;kafka&#45;consumer&#45;lib7</title>
<path fill="none" stroke="black" d="M34.61,-323.88C34.42,-265.71 36.99,-85.14 75.59,-45 86.29,-33.88 99.85,-26.39 114.46,-21.46"/>
<polygon fill="black" stroke="black" points="115.6,-24.78 124.19,-18.58 113.61,-18.06 115.6,-24.78"/>
</g>
<!-- main&#45;&gt;internal&#45;accounting&#45;grpc&#45;lib6 -->
<g id="edge3" class="edge">
<title>main&#45;&gt;internal&#45;accounting&#45;grpc&#45;lib6</title>
<path fill="none" stroke="black" d="M36.19,-323.78C39.84,-281.11 51.12,-176.58 75.59,-153 80.98,-147.81 87,-143.43 93.45,-139.74"/>
<polygon fill="black" stroke="black" points="95.17,-142.8 102.49,-135.14 91.99,-136.56 95.17,-142.8"/>
</g>
<!-- main&#45;&gt;external&#45;google&#45;maps&#45;http&#45;lib5 -->
<g id="edge9" class="edge">
<title>main&#45;&gt;external&#45;google&#45;maps&#45;http&#45;lib5</title>
<path fill="none" stroke="black" d="M35.22,-359.99C36.81,-410.7 44.05,-553.17 75.59,-585 80.25,-589.7 85.42,-593.74 90.96,-597.21"/>
<polygon fill="black" stroke="black" points="89.5,-600.41 99.95,-602.21 92.91,-594.29 89.5,-600.41"/>
</g>
<!-- main&#45;&gt;persistence&#45;db&#45;postgres&#45;lib1 -->
<g id="edge13" class="edge">
<title>main&#45;&gt;persistence&#45;db&#45;postgres&#45;lib1</title>
<path fill="none" stroke="black" d="M34.66,-360.45C35.5,-389.81 41.73,-446.92 75.59,-477 81.67,-482.4 88.43,-486.89 95.64,-490.63"/>
<polygon fill="black" stroke="black" points="94.44,-493.93 104.99,-494.96 97.39,-487.58 94.44,-493.93"/>
</g>
<!-- main&#45;&gt;core -->
<g id="edge20" class="edge">
<title>main&#45;&gt;core</title>
<path fill="none" stroke="black" d="M38.79,-359.89C43.96,-378.68 54.88,-407.58 75.59,-423 108.07,-447.17 155.12,-452.24 188.32,-452.32"/>
<polygon fill="black" stroke="black" points="188.63,-455.82 198.58,-452.19 188.54,-448.82 188.63,-455.82"/>
</g>
<!-- main&#45;&gt;persistence&#45;db&#45;postgres&#45;lib2 -->
<g id="edge25" class="edge">
<title>main&#45;&gt;persistence&#45;db&#45;postgres&#45;lib2</title>
<path fill="none" stroke="black" d="M53.81,-356.91C60.39,-361.42 68.02,-365.98 75.59,-369 88.04,-373.97 101.43,-378.03 114.91,-381.35"/>
<polygon fill="black" stroke="black" points="114.2,-384.77 124.73,-383.63 115.78,-377.96 114.2,-384.77"/>
</g>
<!-- main&#45;&gt;internal&#45;kafka&#45;producer&#45;lib7 -->
<g id="edge22" class="edge">
<title>main&#45;&gt;internal&#45;kafka&#45;producer&#45;lib7</title>
<path fill="none" stroke="black" d="M35.22,-324.01C36.81,-273.3 44.05,-130.83 75.59,-99 81.25,-93.3 87.65,-88.56 94.57,-84.63"/>
<polygon fill="black" stroke="black" points="96.22,-87.72 103.57,-80.09 93.07,-81.47 96.22,-87.72"/>
</g>
<!-- main&#45;&gt;config&#45;file&#45;lib3 -->
<g id="edge23" class="edge">
<title>main&#45;&gt;config&#45;file&#45;lib3</title>
<path fill="none" stroke="black" d="M68.01,-342C88.67,-342 116.26,-342 142.7,-342"/>
<polygon fill="black" stroke="black" points="142.76,-345.5 152.76,-342 142.76,-338.5 142.76,-345.5"/>
</g>
<!-- config&#45;db&#45;mongo&#45;lib4 -->
<g id="node14" class="node">
<title>config&#45;db&#45;mongo&#45;lib4</title>
<ellipse fill="none" stroke="black" cx="228.98" cy="-288" rx="107.78" ry="18"/>
<text text-anchor="middle" x="228.98" y="-284.3" font-family="Times,serif" font-size="14.00">config&#45;db&#45;mongo&#45;lib4</text>
</g>
<!-- main&#45;&gt;config&#45;db&#45;mongo&#45;lib4 -->
<g id="edge31" class="edge">
<title>main&#45;&gt;config&#45;db&#45;mongo&#45;lib4</title>
<path fill="none" stroke="black" d="M53.81,-327.09C60.39,-322.58 68.02,-318.02 75.59,-315 92.02,-308.44 110.06,-303.47 127.82,-299.7"/>
<polygon fill="black" stroke="black" points="128.52,-303.13 137.64,-297.73 127.15,-296.27 128.52,-303.13"/>
</g>
<!-- delivery&#45;http&#45;lib5 -->
<g id="node15" class="node">
<title>delivery&#45;http&#45;lib5</title>
<ellipse fill="none" stroke="black" cx="228.98" cy="-558" rx="90.98" ry="18"/>
<text text-anchor="middle" x="228.98" y="-554.3" font-family="Times,serif" font-size="14.00">delivery&#45;http&#45;lib5</text>
</g>
<!-- main&#45;&gt;delivery&#45;http&#45;lib5 -->
<g id="edge1" class="edge">
<title>main&#45;&gt;delivery&#45;http&#45;lib5</title>
<path fill="none" stroke="black" d="M36.19,-360.22C39.84,-402.89 51.12,-507.42 75.59,-531 89.91,-544.79 108.68,-552.87 128.14,-557.38"/>
<polygon fill="black" stroke="black" points="127.55,-560.83 138.04,-559.37 128.93,-553.97 127.55,-560.83"/>
</g>
<!-- job&#45;processor&#45;lib9 -->
<g id="node16" class="node">
<title>job&#45;processor&#45;lib9</title>
<ellipse fill="none" stroke="black" cx="228.98" cy="-234" rx="93.68" ry="18"/>
<text text-anchor="middle" x="228.98" y="-230.3" font-family="Times,serif" font-size="14.00">job&#45;processor&#45;lib9</text>
</g>
<!-- main&#45;&gt;job&#45;processor&#45;lib9 -->
<g id="edge12" class="edge">
<title>main&#45;&gt;job&#45;processor&#45;lib9</title>
<path fill="none" stroke="black" d="M38.79,-324.11C43.96,-305.32 54.88,-276.42 75.59,-261 90.39,-249.99 108.22,-242.94 126.37,-238.52"/>
<polygon fill="black" stroke="black" points="127.16,-241.93 136.18,-236.39 125.67,-235.09 127.16,-241.93"/>
</g>
<!-- scheduler&#45;lib8 -->
<g id="node17" class="node">
<title>scheduler&#45;lib8</title>
<ellipse fill="none" stroke="black" cx="228.98" cy="-180" rx="76.89" ry="18"/>
<text text-anchor="middle" x="228.98" y="-176.3" font-family="Times,serif" font-size="14.00">scheduler&#45;lib8</text>
</g>
<!-- main&#45;&gt;scheduler&#45;lib8 -->
<g id="edge27" class="edge">
<title>main&#45;&gt;scheduler&#45;lib8</title>
<path fill="none" stroke="black" d="M34.66,-323.55C35.5,-294.19 41.73,-237.08 75.59,-207 93.95,-190.69 118.63,-182.58 142.77,-178.9"/>
<polygon fill="black" stroke="black" points="143.23,-182.37 152.7,-177.63 142.34,-175.43 143.23,-182.37"/>
</g>
<!-- config&#45;db&#45;mongo&#45;lib4&#45;&gt;core&#45;headers -->
<g id="edge26" class="edge">
<title>config&#45;db&#45;mongo&#45;lib4&#45;&gt;core&#45;headers</title>
<path fill="none" stroke="black" d="M310.77,-299.86C334.04,-303.94 359.36,-309.01 382.37,-315 391.82,-317.46 401.77,-320.53 411.27,-323.71"/>
<polygon fill="black" stroke="black" points="410.39,-327.1 420.98,-327.04 412.66,-320.48 410.39,-327.1"/>
</g>
<!-- delivery&#45;http&#45;lib5&#45;&gt;lib5&#45;util -->
<g id="edge8" class="edge">
<title>delivery&#45;http&#45;lib5&#45;&gt;lib5&#45;util</title>
<path fill="none" stroke="black" d="M302.96,-568.52C328.29,-572.8 356.75,-578.33 382.37,-585 394.04,-588.04 406.46,-592 417.88,-595.95"/>
<polygon fill="black" stroke="black" points="417.02,-599.36 427.61,-599.4 419.35,-592.76 417.02,-599.36"/>
</g>
<!-- delivery&#45;http&#45;lib5&#45;&gt;core&#45;headers -->
<g id="edge30" class="edge">
<title>delivery&#45;http&#45;lib5&#45;&gt;core&#45;headers</title>
<path fill="none" stroke="black" d="M320.1,-556.98C342.34,-552.92 364.79,-545.15 382.37,-531 432.59,-490.57 450.74,-412.33 457.04,-370.31"/>
<polygon fill="black" stroke="black" points="460.53,-370.6 458.43,-360.21 453.6,-369.64 460.53,-370.6"/>
</g>
<!-- job&#45;processor&#45;lib9&#45;&gt;core&#45;headers -->
<g id="edge29" class="edge">
<title>job&#45;processor&#45;lib9&#45;&gt;core&#45;headers</title>
<path fill="none" stroke="black" d="M317.75,-239.94C339.76,-243.97 362.69,-250.5 382.37,-261 406.62,-273.94 427.76,-297.19 441.87,-315.46"/>
<polygon fill="black" stroke="black" points="439.43,-318.05 448.21,-323.97 445.04,-313.86 439.43,-318.05"/>
</g>
<!-- scheduler&#45;lib8&#45;&gt;core&#45;headers -->
<g id="edge6" class="edge">
<title>scheduler&#45;lib8&#45;&gt;core&#45;headers</title>
<path fill="none" stroke="black" d="M305.88,-180.62C332.02,-184 360.26,-191.5 382.37,-207 419.38,-232.96 441.24,-282.55 451.96,-313.86"/>
<polygon fill="black" stroke="black" points="448.75,-315.3 455.17,-323.72 455.4,-313.13 448.75,-315.3"/>
</g>
</g>
</svg>
