<?xml version="1.0" encoding="UTF-8" standalone="no"?>
<!DOCTYPE svg PUBLIC "-//W3C//DTD SVG 1.1//EN"
 "http://www.w3.org/Graphics/SVG/1.1/DTD/svg11.dtd">
<!-- Generated by graphviz version 2.43.0 (0)
 -->
<!-- Title: project Pages: 1 -->
<svg width="839pt" height="625pt"
 viewBox="0.00 0.00 839.23 625.10" xmlns="http://www.w3.org/2000/svg" xmlns:xlink="http://www.w3.org/1999/xlink">
<g id="graph0" class="graph" transform="scale(1 1) rotate(0) translate(4 621.1)">
<title>project</title>
<polygon fill="white" stroke="transparent" points="-4,4 -4,-621.1 835.23,-621.1 835.23,4 -4,4"/>
<!-- external&#45;stripe&#45;http&#45;lib5 -->
<g id="node1" class="node">
<title>external&#45;stripe&#45;http&#45;lib5</title>
<ellipse fill="none" stroke="black" cx="228.98" cy="-599.1" rx="122.38" ry="18"/>
<text text-anchor="middle" x="228.98" y="-595.4" font-family="Times,serif" font-size="14.00">external&#45;stripe&#45;http&#45;lib5</text>
</g>
<!-- lib5&#45;util -->
<g id="node4" class="node">
<title>lib5&#45;util</title>
<ellipse fill="none" stroke="black" cx="535.95" cy="-519.1" rx="46.59" ry="18"/>
<text text-anchor="middle" x="535.95" y="-515.4" font-family="Times,serif" font-size="14.00">lib5&#45;util</text>
</g>
<!-- external&#45;stripe&#45;http&#45;lib5&#45;&gt;lib5&#45;util -->
<g id="edge18" class="edge">
<title>external&#45;stripe&#45;http&#45;lib5&#45;&gt;lib5&#45;util</title>
<path fill="none" stroke="black" d="M315.93,-586.34C337.75,-582.42 361.05,-577.66 382.37,-572.1 420.69,-562.12 463.16,-547.02 493.55,-535.49"/>
<polygon fill="black" stroke="black" points="494.88,-538.73 502.97,-531.88 492.38,-532.19 494.88,-538.73"/>
</g>
<!-- kafka&#45;consumer&#45;lib7 -->
<g id="node2" class="node">
<title>kafka&#45;consumer&#45;lib7</title>
<ellipse fill="none" stroke="black" cx="228.98" cy="-437.1" rx="104.78" ry="18"/>
<text text-anchor="middle" x="228.98" y="-433.4" font-family="Times,serif" font-size="14.00">kafka&#45;consumer&#45;lib7</text>
</g>
<!-- lib7&#45;util -->
<g id="node8" class="node">
<title>lib7&#45;util</title>
<ellipse fill="none" stroke="black" cx="535.95" cy="-439.1" rx="46.59" ry="18"/>
<text text-anchor="middle" x="535.95" y="-435.4" font-family="Times,serif" font-size="14.00">lib7&#45;util</text>
</g>
<!-- kafka&#45;consumer&#45;lib7&#45;&gt;lib7&#45;util -->
<g id="edge16" class="edge">
<title>kafka&#45;consumer&#45;lib7&#45;&gt;lib7&#45;util</title>
<path fill="none" stroke="black" d="M333.66,-437.78C382.26,-438.1 438.27,-438.47 478.85,-438.74"/>
<polygon fill="black" stroke="black" points="479.06,-442.24 489.08,-438.8 479.1,-435.24 479.06,-442.24"/>
</g>
<!-- internal&#45;accounting&#45;grpc&#45;lib6 -->
<g id="node3" class="node">
<title>internal&#45;accounting&#45;grpc&#45;lib6</title>
<ellipse fill="none" stroke="black" cx="535.95" cy="-385.1" rx="145.67" ry="18"/>
<text text-anchor="middle" x="535.95" y="-381.4" font-family="Times,serif" font-size="14.00">internal&#45;accounting&#45;grpc&#45;lib6</text>
</g>
<!-- core&#45;headers -->
<g id="node9" class="node">
<title>core&#45;headers</title>
<ellipse fill="none" stroke="black" cx="760.38" cy="-250.1" rx="70.69" ry="18"/>
<text text-anchor="middle" x="760.38" y="-246.4" font-family="Times,serif" font-size="14.00">core&#45;headers</text>
</g>
<!-- internal&#45;accounting&#45;grpc&#45;lib6&#45;&gt;core&#45;headers -->
<g id="edge26" class="edge">
<title>internal&#45;accounting&#45;grpc&#45;lib6&#45;&gt;core&#45;headers</title>
<path fill="none" stroke="black" d="M648.07,-373.48C659.88,-369.62 671.3,-364.6 681.54,-358.1 712.17,-338.67 734.5,-302.47 747.2,-277.37"/>
<polygon fill="black" stroke="black" points="750.36,-278.87 751.59,-268.35 744.06,-275.81 750.36,-278.87"/>
</g>
<!-- lib5&#45;util&#45;&gt;core&#45;headers -->
<g id="edge7" class="edge">
<title>lib5&#45;util&#45;&gt;core&#45;headers</title>
<path fill="none" stroke="black" d="M580.51,-513.15C612.33,-506.66 654.49,-493.31 681.54,-466.1 733.72,-413.64 751.15,-323.7 756.8,-278.21"/>
<polygon fill="black" stroke="black" points="760.29,-278.5 757.94,-268.17 753.33,-277.71 760.29,-278.5"/>
</g>
<!-- external&#45;google&#45;maps&#45;http&#45;lib5 -->
<g id="node5" class="node">
<title>external&#45;google&#45;maps&#45;http&#45;lib5</title>
<ellipse fill="none" stroke="black" cx="228.98" cy="-545.1" rx="153.27" ry="18"/>
<text text-anchor="middle" x="228.98" y="-541.4" font-family="Times,serif" font-size="14.00">external&#45;google&#45;maps&#45;http&#45;lib5</text>
</g>
<!-- external&#45;google&#45;maps&#45;http&#45;lib5&#45;&gt;lib5&#45;util -->
<g id="edge14" class="edge">
<title>external&#45;google&#45;maps&#45;http&#45;lib5&#45;&gt;lib5&#45;util</title>
<path fill="none" stroke="black" d="M353.59,-534.57C397.47,-530.82 444.66,-526.8 479.9,-523.8"/>
<polygon fill="black" stroke="black" points="480.31,-527.27 489.98,-522.94 479.72,-520.3 480.31,-527.27"/>
</g>
<!-- persistence&#45;db&#45;postgres&#45;lib1 -->
<g id="node6" class="node">
<title>persistence&#45;db&#45;postgres&#45;lib1</title>
<ellipse fill="none" stroke="black" cx="535.95" cy="-331.1" rx="142.97" ry="18"/>
<text text-anchor="middle" x="535.95" y="-327.4" font-family="Times,serif" font-size="14.00">persistence&#45;db&#45;postgres&#45;lib1</text>
</g>
<!-- persistence&#45;db&#45;postgres&#45;lib1&#45;&gt;core&#45;headers -->
<g id="edge13" class="edge">
<title>persistence&#45;db&#45;postgres&#45;lib1&#45;&gt;core&#45;headers</title>
<path fill="none" stroke="black" d="M636.57,-318.24C651.95,-314.63 667.4,-310.01 681.54,-304.1 699.56,-296.58 717.6,-284.42 731.78,-273.55"/>
<polygon fill="black" stroke="black" points="733.96,-276.28 739.64,-267.34 729.63,-270.79 733.96,-276.28"/>
</g>
<!-- core -->
<g id="node7" class="node">
<title>core</title>
<ellipse fill="none" stroke="black" cx="535.95" cy="-277.1" rx="30.59" ry="18"/>
<text text-anchor="middle" x="535.95" y="-273.4" font-family="Times,serif" font-size="14.00">core</text>
</g>
<!-- core&#45;&gt;core&#45;headers -->
<g id="edge4" class="edge">
<title>core&#45;&gt;core&#45;headers</title>
<path fill="none" stroke="black" d="M566.03,-273.57C596.38,-269.89 645.18,-263.97 686.15,-258.99"/>
<polygon fill="black" stroke="black" points="686.61,-262.46 696.11,-257.78 685.77,-255.51 686.61,-262.46"/>
</g>
<!-- lib7&#45;util&#45;&gt;core&#45;headers -->
<g id="edge23" class="edge">
<title>lib7&#45;util&#45;&gt;core&#45;headers</title>
<path fill="none" stroke="black" d="M582.63,-440.85C613.45,-439.75 653.47,-433.61 681.54,-412.1 724.94,-378.86 745.4,-315.24 753.99,-278.39"/>
<polygon fill="black" stroke="black" points="757.47,-278.84 756.19,-268.32 750.63,-277.34 757.47,-278.84"/>
</g>
<!-- persistence&#45;db&#45;postgres&#45;lib2 -->
<g id="node10" class="node">
<title>persistence&#45;db&#45;postgres&#45;lib2</title>
<ellipse fill="none" stroke="black" cx="535.95" cy="-223.1" rx="142.97" ry="18"/>
<text text-anchor="middle" x="535.95" y="-219.4" font-family="Times,serif" font-size="14.00">persistence&#45;db&#45;postgres&#45;lib2</text>
</g>
<!-- persistence&#45;db&#45;postgres&#45;lib2&#45;&gt;core&#45;headers -->
<g id="edge15" class="edge">
<title>persistence&#45;db&#45;postgres&#45;lib2&#45;&gt;core&#45;headers</title>
<path fill="none" stroke="black" d="M639.38,-235.54C655.13,-237.45 671.11,-239.39 686.06,-241.2"/>
<polygon fill="black" stroke="black" points="685.88,-244.71 696.23,-242.44 686.72,-237.76 685.88,-244.71"/>
</g>
<!-- internal&#45;kafka&#45;producer&#45;lib7 -->
<g id="node11" class="node">
<title>internal&#45;kafka&#45;producer&#45;lib7</title>
<ellipse fill="none" stroke="black" cx="228.98" cy="-383.1" rx="140.28" ry="18"/>
<text text-anchor="middle" x="228.98" y="-379.4" font-family="Times,serif" font-size="14.00">internal&#45;kafka&#45;producer&#45;lib7</text>
</g>
<!-- internal&#45;kafka&#45;producer&#45;lib7&#45;&gt;lib7&#45;util -->
<g id="edge6" class="edge">
<title>internal&#45;kafka&#45;producer&#45;lib7&#45;&gt;lib7&#45;util</title>
<path fill="none" stroke="black" d="M316.02,-397.27C337.73,-401.14 360.95,-405.53 382.37,-410.1 385.95,-410.87 386.79,-411.32 390.37,-412.1 420.79,-418.74 455.03,-425.18 482.55,-430.1"/>
<polygon fill="black" stroke="black" points="482.29,-433.61 492.75,-431.91 483.51,-426.72 482.29,-433.61"/>
</g>
<!-- config&#45;file&#45;lib3 -->
<g id="node12" class="node">
<title>config&#45;file&#45;lib3</title>
<ellipse fill="none" stroke="black" cx="535.95" cy="-169.1" rx="76.09" ry="18"/>
<text text-anchor="middle" x="535.95" y="-165.4" font-family="Times,serif" font-size="14.00">config&#45;file&#45;lib3</text>
</g>
<!-- config&#45;file&#45;lib3&#45;&gt;core&#45;headers -->
<g id="edge10" class="edge">
<title>config&#45;file&#45;lib3&#45;&gt;core&#45;headers</title>
<path fill="none" stroke="black" d="M606.34,-176C630.76,-179.99 657.98,-186.26 681.54,-196.1 699.56,-203.63 717.6,-215.78 731.78,-226.66"/>
<polygon fill="black" stroke="black" points="729.63,-229.42 739.64,-232.87 733.96,-223.93 729.63,-229.42"/>
</g>
<!-- main -->
<g id="node13" class="node">
<title>main</title>
<ellipse fill="none" stroke="black" cx="33.8" cy="-299.1" rx="33.6" ry="18"/>
<text text-anchor="middle" x="33.8" y="-295.4" font-family="Times,serif" font-size="14.00">main</text>
</g>
<!-- main&#45;&gt;external&#45;stripe&#45;http&#45;lib5 -->
<g id="edge21" class="edge">
<title>main&#45;&gt;external&#45;stripe&#45;http&#45;lib5</title>
<path fill="none" stroke="black" d="M34.86,-317.3C35.44,-372.37 40.16,-535.7 75.59,-572.1 83.05,-579.76 91.87,-585.69 101.45,-590.25"/>
<polygon fill="black" stroke="black" points="100.27,-593.55 110.84,-594.21 102.99,-587.1 100.27,-593.55"/>
</g>
<!-- main&#45;&gt;kafka&#45;consumer&#45;lib7 -->
<g id="edge3" class="edge">
<title>main&#45;&gt;kafka&#45;consumer&#45;lib7</title>
<path fill="none" stroke="black" d="M36.05,-317.2C38.79,-342.14 47.57,-386.64 75.59,-410.1 87.26,-419.87 101.21,-426.63 115.87,-431.25"/>
<polygon fill="black" stroke="black" points="115.02,-434.64 125.59,-433.98 116.91,-427.9 115.02,-434.64"/>
</g>
<!-- main&#45;&gt;internal&#45;accounting&#45;grpc&#45;lib6 -->
<g id="edge2" class="edge">
<title>main&#45;&gt;internal&#45;accounting&#45;grpc&#45;lib6</title>
<path fill="none" stroke="black" d="M55.16,-313.36C61.45,-317.12 68.57,-320.78 75.59,-323.1 205.79,-366.17 247.36,-332.08 382.37,-356.1 385.98,-356.75 386.79,-357.32 390.37,-358.1 406.84,-361.7 424.44,-365.23 441.48,-368.5"/>
<polygon fill="black" stroke="black" points="440.96,-371.97 451.44,-370.4 442.27,-365.09 440.96,-371.97"/>
</g>
<!-- main&#45;&gt;external&#45;google&#45;maps&#45;http&#45;lib5 -->
<g id="edge9" class="edge">
<title>main&#45;&gt;external&#45;google&#45;maps&#45;http&#45;lib5</title>
<path fill="none" stroke="black" d="M35.6,-317.35C38.08,-364.74 47.23,-489.99 75.59,-518.1 80.29,-522.76 85.49,-526.77 91.06,-530.21"/>
<polygon fill="black" stroke="black" points="89.63,-533.42 100.08,-535.17 93.01,-527.29 89.63,-533.42"/>
</g>
<!-- main&#45;&gt;persistence&#45;db&#45;postgres&#45;lib1 -->
<g id="edge12" class="edge">
<title>main&#45;&gt;persistence&#45;db&#45;postgres&#45;lib1</title>
<path fill="none" stroke="black" d="M67.61,-301.2C133.49,-305.42 285.15,-315.12 397.94,-322.34"/>
<polygon fill="black" stroke="black" points="397.84,-325.84 408.05,-322.98 398.29,-318.85 397.84,-325.84"/>
</g>
<!-- main&#45;&gt;core -->
<g id="edge17" class="edge">
<title>main&#45;&gt;core</title>
<path fill="none" stroke="black" d="M61.7,-288.55C66.27,-287.14 71.02,-285.91 75.59,-285.1 228.97,-258.15 415.57,-267.65 495.52,-273.68"/>
<polygon fill="black" stroke="black" points="495.39,-277.19 505.63,-274.47 495.93,-270.21 495.39,-277.19"/>
</g>
<!-- main&#45;&gt;persistence&#45;db&#45;postgres&#45;lib2 -->
<g id="edge22" class="edge">
<title>main&#45;&gt;persistence&#45;db&#45;postgres&#45;lib2</title>
<path fill="none" stroke="black" d="M48.2,-282.75C55.45,-275.1 65.07,-266.68 75.59,-262.1 180.91,-216.25 312.52,-209.55 407.84,-212.52"/>
<polygon fill="black" stroke="black" points="407.99,-216.02 418.11,-212.88 408.24,-209.03 407.99,-216.02"/>
</g>
<!-- main&#45;&gt;internal&#45;kafka&#45;producer&#45;lib7 -->
<g id="edge19" class="edge">
<title>main&#45;&gt;internal&#45;kafka&#45;producer&#45;lib7</title>
<path fill="none" stroke="black" d="M44.08,-316.48C51.19,-328.07 62.05,-342.68 75.59,-351.1 87.14,-358.28 100.03,-363.88 113.29,-368.23"/>
<polygon fill="black" stroke="black" points="112.41,-371.62 123,-371.18 114.45,-364.92 112.41,-371.62"/>
</g>
<!-- main&#45;&gt;config&#45;file&#45;lib3 -->
<g id="edge20" class="edge">
<title>main&#45;&gt;config&#45;file&#45;lib3</title>
<path fill="none" stroke="black" d="M37.25,-281.14C41.22,-259.65 51.24,-224.41 75.59,-207.1 133.84,-165.7 334.42,-163.57 450.36,-166.07"/>
<polygon fill="black" stroke="black" points="450.55,-169.58 460.62,-166.31 450.71,-162.58 450.55,-169.58"/>
</g>
<!-- config&#45;db&#45;mongo&#45;lib4 -->
<g id="node14" class="node">
<title>config&#45;db&#45;mongo&#45;lib4</title>
<ellipse fill="none" stroke="black" cx="535.95" cy="-115.1" rx="107.78" ry="18"/>
<text text-anchor="middle" x="535.95" y="-111.4" font-family="Times,serif" font-size="14.00">config&#45;db&#45;mongo&#45;lib4</text>
</g>
<!-- main&#45;&gt;config&#45;db&#45;mongo&#45;lib4 -->
<g id="edge28" class="edge">
<title>main&#45;&gt;config&#45;db&#45;mongo&#45;lib4</title>
<path fill="none" stroke="black" d="M34.25,-280.93C34.43,-250.8 39.61,-190.9 75.59,-161.1 101.68,-139.5 293.62,-126.37 421,-119.94"/>
<polygon fill="black" stroke="black" points="421.39,-123.43 431.2,-119.43 421.04,-116.44 421.39,-123.43"/>
</g>
<!-- delivery&#45;http&#45;lib5 -->
<g id="node15" class="node">
<title>delivery&#45;http&#45;lib5</title>
<ellipse fill="none" stroke="black" cx="228.98" cy="-491.1" rx="90.98" ry="18"/>
<text text-anchor="middle" x="228.98" y="-487.4" font-family="Times,serif" font-size="14.00">delivery&#45;http&#45;lib5</text>
</g>
<!-- main&#45;&gt;delivery&#45;http&#45;lib5 -->
<g id="edge1" class="edge">
<title>main&#45;&gt;delivery&#45;http&#45;lib5</title>
<path fill="none" stroke="black" d="M36.81,-317.31C41.46,-355.91 54.2,-444.1 75.59,-464.1 90.03,-477.6 108.76,-485.58 128.11,-490.08"/>
<polygon fill="black" stroke="black" points="127.46,-493.52 137.96,-492.08 128.85,-486.66 127.46,-493.52"/>
</g>
<!-- job&#45;processor&#45;lib9 -->
<g id="node16" class="node">
<title>job&#45;processor&#45;lib9</title>
<ellipse fill="none" stroke="black" cx="228.98" cy="-94.1" rx="93.68" ry="18"/>
<text text-anchor="middle" x="228.98" y="-90.4" font-family="Times,serif" font-size="14.00">job&#45;processor&#45;lib9</text>
</g>
<!-- main&#45;&gt;job&#45;processor&#45;lib9 -->
<g id="edge11" class="edge">
<title>main&#45;&gt;job&#45;processor&#45;lib9</title>
<path fill="none" stroke="black" d="M36.76,-281.14C41.4,-242.11 54.25,-151.34 75.59,-130.1 90,-115.77 108.99,-106.73 128.66,-101.13"/>
<polygon fill="black" stroke="black" points="129.53,-104.52 138.35,-98.65 127.79,-97.74 129.53,-104.52"/>
</g>
<!-- scheduler&#45;lib8 -->
<g id="node17" class="node">
<title>scheduler&#45;lib8</title>
<ellipse fill="none" stroke="black" cx="228.98" cy="-32.1" rx="76.89" ry="18"/>
<text text-anchor="middle" x="228.98" y="-28.4" font-family="Times,serif" font-size="14.00">scheduler&#45;lib8</text>
</g>
<!-- main&#45;&gt;scheduler&#45;lib8 -->
<g id="edge25" class="edge">
<title>main&#45;&gt;scheduler&#45;lib8</title>
<path fill="none" stroke="black" d="M35.47,-280.95C37.68,-231.83 46.31,-97.94 75.59,-67.1 92.84,-48.94 117.46,-39.32 141.89,-34.45"/>
<polygon fill="black" stroke="black" points="142.71,-37.86 151.96,-32.7 141.5,-30.96 142.71,-37.86"/>
</g>
<!-- config&#45;db&#45;mongo&#45;lib4&#45;&gt;core&#45;headers -->
<g id="edge24" class="edge">
<title>config&#45;db&#45;mongo&#45;lib4&#45;&gt;core&#45;headers</title>
<path fill="none" stroke="black" d="M634.15,-122.72C650.81,-126.9 667.31,-133.07 681.54,-142.1 712.17,-161.54 734.5,-197.74 747.2,-222.84"/>
<polygon fill="black" stroke="black" points="744.06,-224.4 751.59,-231.86 750.36,-221.34 744.06,-224.4"/>
</g>
<!-- delivery&#45;http&#45;lib5&#45;&gt;lib5&#45;util -->
<g id="edge8" class="edge">
<title>delivery&#45;http&#45;lib5&#45;&gt;lib5&#45;util</title>
<path fill="none" stroke="black" d="M311.71,-498.61C365.13,-503.51 433.44,-509.78 480.35,-514.09"/>
<polygon fill="black" stroke="black" points="480.04,-517.58 490.31,-515 480.68,-510.61 480.04,-517.58"/>
</g>
<!-- job&#45;processor&#45;lib9&#45;&gt;core&#45;headers -->
<g id="edge27" class="edge">
<title>job&#45;processor&#45;lib9&#45;&gt;core&#45;headers</title>
<path fill="none" stroke="black" d="M304.84,-83.54C416.72,-69.33 620.9,-49.96 681.54,-88.1 728.38,-117.56 747.68,-183.94 755.12,-221.95"/>
<polygon fill="black" stroke="black" points="751.69,-222.65 756.92,-231.87 758.58,-221.41 751.69,-222.65"/>
</g>
<!-- scheduler&#45;lib8&#45;&gt;core&#45;headers -->
<g id="edge5" class="edge">
<title>scheduler&#45;lib8&#45;&gt;core&#45;headers</title>
<path fill="none" stroke="black" d="M282.51,-19.09C373.26,0.13 561.2,25.19 681.54,-61.1 734.31,-98.95 751.42,-179.26 756.88,-221.99"/>
<polygon fill="black" stroke="black" points="753.41,-222.46 758.03,-231.99 760.36,-221.66 753.41,-222.46"/>
</g>
</g>
</svg>
