<?xml version="1.0" encoding="UTF-8" standalone="no"?>
<!DOCTYPE svg PUBLIC "-//W3C//DTD SVG 1.1//EN"
 "http://www.w3.org/Graphics/SVG/1.1/DTD/svg11.dtd">
<!-- Generated by graphviz version 2.43.0 (0)
 -->
<!-- Title: project Pages: 1 -->
<svg width="839pt" height="674pt"
 viewBox="0.00 0.00 839.23 673.82" xmlns="http://www.w3.org/2000/svg" xmlns:xlink="http://www.w3.org/1999/xlink">
<g id="graph0" class="graph" transform="scale(1 1) rotate(0) translate(4 669.82)">
<title>project</title>
<polygon fill="white" stroke="transparent" points="-4,4 -4,-669.82 835.23,-669.82 835.23,4 -4,4"/>
<!-- external&#45;stripe&#45;http&#45;lib5 -->
<g id="node1" class="node">
<title>external&#45;stripe&#45;http&#45;lib5</title>
<ellipse fill="none" stroke="black" cx="228.98" cy="-593.82" rx="122.38" ry="18"/>
<text text-anchor="middle" x="228.98" y="-590.12" font-family="Times,serif" font-size="14.00">external&#45;stripe&#45;http&#45;lib5</text>
</g>
<!-- lib5&#45;util -->
<g id="node4" class="node">
<title>lib5&#45;util</title>
<ellipse fill="none" stroke="black" cx="535.95" cy="-539.82" rx="46.59" ry="18"/>
<text text-anchor="middle" x="535.95" y="-536.12" font-family="Times,serif" font-size="14.00">lib5&#45;util</text>
</g>
<!-- external&#45;stripe&#45;http&#45;lib5&#45;&gt;lib5&#45;util -->
<g id="edge20" class="edge">
<title>external&#45;stripe&#45;http&#45;lib5&#45;&gt;lib5&#45;util</title>
<path fill="none" stroke="black" d="M307.73,-580.06C362.76,-570.31 435.04,-557.51 483.15,-549"/>
<polygon fill="black" stroke="black" points="483.79,-552.44 493.03,-547.25 482.57,-545.54 483.79,-552.44"/>
</g>
<!-- kafka&#45;consumer&#45;lib7 -->
<g id="node2" class="node">
<title>kafka&#45;consumer&#45;lib7</title>
<ellipse fill="none" stroke="black" cx="228.98" cy="-393.82" rx="104.78" ry="18"/>
<text text-anchor="middle" x="228.98" y="-390.12" font-family="Times,serif" font-size="14.00">kafka&#45;consumer&#45;lib7</text>
</g>
<!-- lib7&#45;util -->
<g id="node8" class="node">
<title>lib7&#45;util</title>
<ellipse fill="none" stroke="black" cx="535.95" cy="-393.82" rx="46.59" ry="18"/>
<text text-anchor="middle" x="535.95" y="-390.12" font-family="Times,serif" font-size="14.00">lib7&#45;util</text>
</g>
<!-- kafka&#45;consumer&#45;lib7&#45;&gt;lib7&#45;util -->
<g id="edge17" class="edge">
<title>kafka&#45;consumer&#45;lib7&#45;&gt;lib7&#45;util</title>
<path fill="none" stroke="black" d="M333.66,-393.82C382.26,-393.82 438.27,-393.82 478.85,-393.82"/>
<polygon fill="black" stroke="black" points="479.08,-397.32 489.08,-393.82 479.08,-390.32 479.08,-397.32"/>
</g>
<!-- core&#45;headers -->
<g id="node9" class="node">
<title>core&#45;headers</title>
<ellipse fill="none" stroke="black" cx="760.38" cy="-301.82" rx="70.69" ry="18"/>
<text text-anchor="middle" x="760.38" y="-298.12" font-family="Times,serif" font-size="14.00">core&#45;headers</text>
</g>
<!-- kafka&#45;consumer&#45;lib7&#45;&gt;core&#45;headers -->
<g id="edge15" class="edge">
<title>kafka&#45;consumer&#45;lib7&#45;&gt;core&#45;headers</title>
<path fill="none" stroke="black" d="M300.62,-406.95C410.84,-425.97 617.73,-455.33 681.54,-420.82 717.09,-401.6 739,-358.3 750.19,-329.58"/>
<polygon fill="black" stroke="black" points="753.51,-330.68 753.7,-320.09 746.95,-328.25 753.51,-330.68"/>
</g>
<!-- internal&#45;accounting&#45;grpc&#45;lib6 -->
<g id="node3" class="node">
<title>internal&#45;accounting&#45;grpc&#45;lib6</title>
<ellipse fill="none" stroke="black" cx="535.95" cy="-485.82" rx="145.67" ry="18"/>
<text text-anchor="middle" x="535.95" y="-482.12" font-family="Times,serif" font-size="14.00">internal&#45;accounting&#45;grpc&#45;lib6</text>
</g>
<!-- internal&#45;accounting&#45;grpc&#45;lib6&#45;&gt;core&#45;headers -->
<g id="edge27" class="edge">
<title>internal&#45;accounting&#45;grpc&#45;lib6&#45;&gt;core&#45;headers</title>
<path fill="none" stroke="black" d="M643.69,-473.6C657.29,-468.87 670.35,-462.47 681.54,-453.82 722.05,-422.54 743.32,-364.32 752.88,-329.72"/>
<polygon fill="black" stroke="black" points="756.33,-330.36 755.48,-319.8 749.56,-328.59 756.33,-330.36"/>
</g>
<!-- lib5&#45;util&#45;&gt;core&#45;headers -->
<g id="edge7" class="edge">
<title>lib5&#45;util&#45;&gt;core&#45;headers</title>
<path fill="none" stroke="black" d="M582.28,-542.42C613.54,-541.79 654.22,-535.88 681.54,-512.82 737.07,-465.96 753,-375.74 757.56,-329.96"/>
<polygon fill="black" stroke="black" points="761.06,-330.12 758.45,-319.85 754.09,-329.5 761.06,-330.12"/>
</g>
<!-- external&#45;google&#45;maps&#45;http&#45;lib5 -->
<g id="node5" class="node">
<title>external&#45;google&#45;maps&#45;http&#45;lib5</title>
<ellipse fill="none" stroke="black" cx="228.98" cy="-539.82" rx="153.27" ry="18"/>
<text text-anchor="middle" x="228.98" y="-536.12" font-family="Times,serif" font-size="14.00">external&#45;google&#45;maps&#45;http&#45;lib5</text>
</g>
<!-- external&#45;google&#45;maps&#45;http&#45;lib5&#45;&gt;lib5&#45;util -->
<g id="edge14" class="edge">
<title>external&#45;google&#45;maps&#45;http&#45;lib5&#45;&gt;lib5&#45;util</title>
<path fill="none" stroke="black" d="M382.47,-539.82C416.93,-539.82 451.39,-539.82 478.82,-539.82"/>
<polygon fill="black" stroke="black" points="478.97,-543.32 488.97,-539.82 478.97,-536.32 478.97,-543.32"/>
</g>
<!-- persistence&#45;db&#45;postgres&#45;lib1 -->
<g id="node6" class="node">
<title>persistence&#45;db&#45;postgres&#45;lib1</title>
<ellipse fill="none" stroke="black" cx="535.95" cy="-301.82" rx="142.97" ry="18"/>
<text text-anchor="middle" x="535.95" y="-298.12" font-family="Times,serif" font-size="14.00">persistence&#45;db&#45;postgres&#45;lib1</text>
</g>
<!-- persistence&#45;db&#45;postgres&#45;lib1&#45;&gt;core&#45;headers -->
<g id="edge13" class="edge">
<title>persistence&#45;db&#45;postgres&#45;lib1&#45;&gt;core&#45;headers</title>
<path fill="none" stroke="black" d="M679.08,-301.82C679.19,-301.82 679.29,-301.82 679.4,-301.82"/>
<polygon fill="black" stroke="black" points="679.16,-305.32 689.16,-301.82 679.16,-298.32 679.16,-305.32"/>
</g>
<!-- core -->
<g id="node7" class="node">
<title>core</title>
<ellipse fill="none" stroke="black" cx="535.95" cy="-247.82" rx="30.59" ry="18"/>
<text text-anchor="middle" x="535.95" y="-244.12" font-family="Times,serif" font-size="14.00">core</text>
</g>
<!-- core&#45;&gt;core&#45;headers -->
<g id="edge4" class="edge">
<title>core&#45;&gt;core&#45;headers</title>
<path fill="none" stroke="black" d="M565.77,-251.91C595.15,-256.37 641.93,-264.32 681.54,-274.82 690.98,-277.33 700.92,-280.42 710.43,-283.6"/>
<polygon fill="black" stroke="black" points="709.54,-287 720.14,-286.93 711.81,-280.37 709.54,-287"/>
</g>
<!-- persistence&#45;db&#45;postgres&#45;lib2 -->
<g id="node10" class="node">
<title>persistence&#45;db&#45;postgres&#45;lib2</title>
<ellipse fill="none" stroke="black" cx="535.95" cy="-193.82" rx="142.97" ry="18"/>
<text text-anchor="middle" x="535.95" y="-190.12" font-family="Times,serif" font-size="14.00">persistence&#45;db&#45;postgres&#45;lib2</text>
</g>
<!-- persistence&#45;db&#45;postgres&#45;lib2&#45;&gt;core&#45;headers -->
<g id="edge16" class="edge">
<title>persistence&#45;db&#45;postgres&#45;lib2&#45;&gt;core&#45;headers</title>
<path fill="none" stroke="black" d="M643.43,-205.81C656.7,-209.56 669.74,-214.46 681.54,-220.82 705.73,-233.88 726.88,-257.11 741,-275.36"/>
<polygon fill="black" stroke="black" points="738.56,-277.94 747.36,-283.85 744.17,-273.74 738.56,-277.94"/>
</g>
<!-- internal&#45;kafka&#45;producer&#45;lib7 -->
<g id="node11" class="node">
<title>internal&#45;kafka&#45;producer&#45;lib7</title>
<ellipse fill="none" stroke="black" cx="228.98" cy="-339.82" rx="140.28" ry="18"/>
<text text-anchor="middle" x="228.98" y="-336.12" font-family="Times,serif" font-size="14.00">internal&#45;kafka&#45;producer&#45;lib7</text>
</g>
<!-- internal&#45;kafka&#45;producer&#45;lib7&#45;&gt;lib7&#45;util -->
<g id="edge6" class="edge">
<title>internal&#45;kafka&#45;producer&#45;lib7&#45;&gt;lib7&#45;util</title>
<path fill="none" stroke="black" d="M312.11,-354.37C366.51,-364 436.22,-376.34 483.06,-384.64"/>
<polygon fill="black" stroke="black" points="482.53,-388.1 492.99,-386.39 483.75,-381.2 482.53,-388.1"/>
</g>
<!-- internal&#45;kafka&#45;producer&#45;lib7&#45;&gt;core&#45;headers -->
<g id="edge18" class="edge">
<title>internal&#45;kafka&#45;producer&#45;lib7&#45;&gt;core&#45;headers</title>
<path fill="none" stroke="black" d="M357.56,-347.14C448.59,-349.84 573.51,-348.38 681.54,-328.82 691.99,-326.93 702.93,-323.86 713.2,-320.46"/>
<polygon fill="black" stroke="black" points="714.5,-323.72 722.79,-317.13 712.2,-317.11 714.5,-323.72"/>
</g>
<!-- config&#45;file&#45;lib3 -->
<g id="node12" class="node">
<title>config&#45;file&#45;lib3</title>
<ellipse fill="none" stroke="black" cx="535.95" cy="-139.82" rx="76.09" ry="18"/>
<text text-anchor="middle" x="535.95" y="-136.12" font-family="Times,serif" font-size="14.00">config&#45;file&#45;lib3</text>
</g>
<!-- config&#45;file&#45;lib3&#45;&gt;core&#45;headers -->
<g id="edge10" class="edge">
<title>config&#45;file&#45;lib3&#45;&gt;core&#45;headers</title>
<path fill="none" stroke="black" d="M611.98,-141.62C635.94,-145.24 661.43,-152.58 681.54,-166.82 718.44,-192.95 740.33,-242.49 751.09,-273.75"/>
<polygon fill="black" stroke="black" points="747.88,-275.17 754.32,-283.59 754.53,-272.99 747.88,-275.17"/>
</g>
<!-- main -->
<g id="node13" class="node">
<title>main</title>
<ellipse fill="none" stroke="black" cx="33.8" cy="-339.82" rx="33.6" ry="18"/>
<text text-anchor="middle" x="33.8" y="-336.12" font-family="Times,serif" font-size="14.00">main</text>
</g>
<!-- main&#45;&gt;external&#45;stripe&#45;http&#45;lib5 -->
<g id="edge23" class="edge">
<title>main&#45;&gt;external&#45;stripe&#45;http&#45;lib5</title>
<path fill="none" stroke="black" d="M35.47,-358.02C37.65,-406.57 46.18,-537.48 75.59,-566.82 83.23,-574.44 92.23,-580.34 101.96,-584.86"/>
<polygon fill="black" stroke="black" points="100.92,-588.22 111.5,-588.79 103.59,-581.74 100.92,-588.22"/>
</g>
<!-- main&#45;&gt;kafka&#45;consumer&#45;lib7 -->
<g id="edge3" class="edge">
<title>main&#45;&gt;kafka&#45;consumer&#45;lib7</title>
<path fill="none" stroke="black" d="M53.81,-354.74C60.39,-359.25 68.02,-363.8 75.59,-366.82 92.44,-373.55 110.99,-378.61 129.18,-382.41"/>
<polygon fill="black" stroke="black" points="128.75,-385.89 139.24,-384.39 130.11,-379.02 128.75,-385.89"/>
</g>
<!-- main&#45;&gt;internal&#45;accounting&#45;grpc&#45;lib6 -->
<g id="edge2" class="edge">
<title>main&#45;&gt;internal&#45;accounting&#45;grpc&#45;lib6</title>
<path fill="none" stroke="black" d="M38.64,-357.93C43.68,-376.89 54.48,-405.95 75.59,-420.82 131.75,-460.38 314.44,-448.61 382.37,-458.82 402.6,-461.86 424.28,-465.48 444.76,-469.06"/>
<polygon fill="black" stroke="black" points="444.25,-472.53 454.7,-470.82 445.46,-465.63 444.25,-472.53"/>
</g>
<!-- main&#45;&gt;external&#45;google&#45;maps&#45;http&#45;lib5 -->
<g id="edge9" class="edge">
<title>main&#45;&gt;external&#45;google&#45;maps&#45;http&#45;lib5</title>
<path fill="none" stroke="black" d="M36.58,-357.99C40.88,-397.96 53.17,-491.62 75.59,-512.82 80.64,-517.6 86.23,-521.68 92.19,-525.17"/>
<polygon fill="black" stroke="black" points="90.69,-528.33 101.18,-529.86 93.93,-522.13 90.69,-528.33"/>
</g>
<!-- main&#45;&gt;persistence&#45;db&#45;postgres&#45;lib1 -->
<g id="edge12" class="edge">
<title>main&#45;&gt;persistence&#45;db&#45;postgres&#45;lib1</title>
<path fill="none" stroke="black" d="M52.75,-324.8C59.49,-320.04 67.49,-315.37 75.59,-312.82 191.43,-276.44 331.91,-279.44 426.77,-287.84"/>
<polygon fill="black" stroke="black" points="426.68,-291.35 436.96,-288.78 427.32,-284.38 426.68,-291.35"/>
</g>
<!-- main&#45;&gt;core -->
<g id="edge19" class="edge">
<title>main&#45;&gt;core</title>
<path fill="none" stroke="black" d="M41.48,-322.03C47.89,-307.69 59.05,-288.39 75.59,-278.82 146.36,-237.9 397.3,-242.58 495.32,-246.12"/>
<polygon fill="black" stroke="black" points="495.28,-249.62 505.41,-246.5 495.55,-242.62 495.28,-249.62"/>
</g>
<!-- main&#45;&gt;persistence&#45;db&#45;postgres&#45;lib2 -->
<g id="edge24" class="edge">
<title>main&#45;&gt;persistence&#45;db&#45;postgres&#45;lib2</title>
<path fill="none" stroke="black" d="M36.69,-321.81C40.14,-298.95 49.67,-260.16 75.59,-240.82 122.96,-205.49 268.11,-195.26 382.72,-192.95"/>
<polygon fill="black" stroke="black" points="383.07,-196.44 393.01,-192.76 382.94,-189.44 383.07,-196.44"/>
</g>
<!-- main&#45;&gt;internal&#45;kafka&#45;producer&#45;lib7 -->
<g id="edge21" class="edge">
<title>main&#45;&gt;internal&#45;kafka&#45;producer&#45;lib7</title>
<path fill="none" stroke="black" d="M68.01,-339.82C71.23,-339.82 74.63,-339.82 78.16,-339.82"/>
<polygon fill="black" stroke="black" points="78.46,-343.32 88.46,-339.82 78.46,-336.32 78.46,-343.32"/>
</g>
<!-- main&#45;&gt;config&#45;file&#45;lib3 -->
<g id="edge22" class="edge">
<title>main&#45;&gt;config&#45;file&#45;lib3</title>
<path fill="none" stroke="black" d="M37.16,-321.8C42.25,-285.8 55.48,-207 75.59,-189.82 130.2,-143.19 333.09,-137.33 450.16,-138.02"/>
<polygon fill="black" stroke="black" points="450.15,-141.52 460.17,-138.09 450.2,-134.52 450.15,-141.52"/>
</g>
<!-- config&#45;db&#45;mongo&#45;lib4 -->
<g id="node14" class="node">
<title>config&#45;db&#45;mongo&#45;lib4</title>
<ellipse fill="none" stroke="black" cx="535.95" cy="-85.82" rx="107.78" ry="18"/>
<text text-anchor="middle" x="535.95" y="-82.12" font-family="Times,serif" font-size="14.00">config&#45;db&#45;mongo&#45;lib4</text>
</g>
<!-- main&#45;&gt;config&#45;db&#45;mongo&#45;lib4 -->
<g id="edge29" class="edge">
<title>main&#45;&gt;config&#45;db&#45;mongo&#45;lib4</title>
<path fill="none" stroke="black" d="M35.74,-321.64C38.49,-276.28 48.13,-159.91 75.59,-134.82 124.21,-90.41 299.47,-82.81 418.89,-83.07"/>
<polygon fill="black" stroke="black" points="419.17,-86.57 429.19,-83.12 419.2,-79.57 419.17,-86.57"/>
</g>
<!-- delivery&#45;http&#45;lib5 -->
<g id="node15" class="node">
<title>delivery&#45;http&#45;lib5</title>
<ellipse fill="none" stroke="black" cx="228.98" cy="-485.82" rx="90.98" ry="18"/>
<text text-anchor="middle" x="228.98" y="-482.12" font-family="Times,serif" font-size="14.00">delivery&#45;http&#45;lib5</text>
</g>
<!-- main&#45;&gt;delivery&#45;http&#45;lib5 -->
<g id="edge1" class="edge">
<title>main&#45;&gt;delivery&#45;http&#45;lib5</title>
<path fill="none" stroke="black" d="M35.95,-357.85C38.59,-383.21 47.23,-429.1 75.59,-453.82 90.67,-466.97 109.77,-475.19 129.29,-480.23"/>
<polygon fill="black" stroke="black" points="128.68,-483.68 139.21,-482.52 130.26,-476.86 128.68,-483.68"/>
</g>
<!-- job&#45;processor&#45;lib9 -->
<g id="node16" class="node">
<title>job&#45;processor&#45;lib9</title>
<ellipse fill="none" stroke="black" cx="228.98" cy="-41.82" rx="93.68" ry="18"/>
<text text-anchor="middle" x="228.98" y="-38.12" font-family="Times,serif" font-size="14.00">job&#45;processor&#45;lib9</text>
</g>
<!-- main&#45;&gt;job&#45;processor&#45;lib9 -->
<g id="edge11" class="edge">
<title>main&#45;&gt;job&#45;processor&#45;lib9</title>
<path fill="none" stroke="black" d="M35.64,-321.78C38.3,-272.28 48.02,-135.73 75.59,-101.82 93.73,-79.52 121.3,-65.48 148.03,-56.65"/>
<polygon fill="black" stroke="black" points="149.3,-59.92 157.82,-53.63 147.23,-53.23 149.3,-59.92"/>
</g>
<!-- scheduler&#45;lib8 -->
<g id="node17" class="node">
<title>scheduler&#45;lib8</title>
<ellipse fill="none" stroke="black" cx="228.98" cy="-647.82" rx="76.89" ry="18"/>
<text text-anchor="middle" x="228.98" y="-644.12" font-family="Times,serif" font-size="14.00">scheduler&#45;lib8</text>
</g>
<!-- main&#45;&gt;scheduler&#45;lib8 -->
<g id="edge26" class="edge">
<title>main&#45;&gt;scheduler&#45;lib8</title>
<path fill="none" stroke="black" d="M34.77,-358.15C35.09,-414.42 39.14,-583.21 75.59,-620.82 93.42,-639.22 119.11,-647.66 144.33,-651"/>
<polygon fill="black" stroke="black" points="144.01,-654.49 154.33,-652.08 144.76,-647.53 144.01,-654.49"/>
</g>
<!-- config&#45;db&#45;mongo&#45;lib4&#45;&gt;core&#45;headers -->
<g id="edge25" class="edge">
<title>config&#45;db&#45;mongo&#45;lib4&#45;&gt;core&#45;headers</title>
<path fill="none" stroke="black" d="M638.67,-91.53C654.2,-96 669.15,-102.76 681.54,-112.82 731.58,-153.48 749.8,-231.63 756.16,-273.57"/>
<polygon fill="black" stroke="black" points="752.72,-274.23 757.57,-283.65 759.65,-273.26 752.72,-274.23"/>
</g>
<!-- delivery&#45;http&#45;lib5&#45;&gt;lib5&#45;util -->
<g id="edge8" class="edge">
<title>delivery&#45;http&#45;lib5&#45;&gt;lib5&#45;util</title>
<path fill="none" stroke="black" d="M297.29,-497.74C353.36,-507.67 432.07,-521.61 483.28,-530.67"/>
<polygon fill="black" stroke="black" points="482.69,-534.12 493.15,-532.42 483.91,-527.23 482.69,-534.12"/>
</g>
<!-- job&#45;processor&#45;lib9&#45;&gt;core&#45;headers -->
<g id="edge28" class="edge">
<title>job&#45;processor&#45;lib9&#45;&gt;core&#45;headers</title>
<path fill="none" stroke="black" d="M280.51,-26.76C371.08,-3.08 562.65,31.41 681.54,-58.82 749.24,-110.2 759.19,-221.05 759.92,-273.38"/>
<polygon fill="black" stroke="black" points="756.42,-273.62 759.96,-283.61 763.42,-273.6 756.42,-273.62"/>
</g>
<!-- scheduler&#45;lib8&#45;&gt;core&#45;headers -->
<g id="edge5" class="edge">
<title>scheduler&#45;lib8&#45;&gt;core&#45;headers</title>
<path fill="none" stroke="black" d="M297.54,-655.98C394.97,-663.75 574.88,-662.62 681.54,-566.82 750.63,-504.77 759.73,-384.95 760.07,-330.28"/>
<polygon fill="black" stroke="black" points="763.57,-329.93 760.04,-319.94 756.57,-329.96 763.57,-329.93"/>
</g>
</g>
</svg>
